<svg width="128" height="128" viewBox="0 0 128 128" fill="none" xmlns="http://www.w3.org/2000/svg">
<rect width="128" height="128" transform="matrix(-1 0 0 1 128 0)" fill="white"/>
<mask id="mask0_8:123" style="mask-type:alpha" maskUnits="userSpaceOnUse" x="8" y="8" width="112" height="112">
<rect width="112" height="112" rx="6" transform="matrix(-1 0 0 1 120 8)" fill="black"/>
</mask>
<g mask="url(#mask0_8:123)">
<rect width="52" height="33" transform="matrix(-1 0 0 1 120 87)" fill="#B5B5B5"/>
<rect width="52" height="32" transform="matrix(-1 0 0 1 120 8)" fill="#B5B5B5"/>
<rect width="23" height="32" transform="matrix(-1 0 0 1 91 48)" fill="#CECECE"/>
<rect width="23" height="32" transform="matrix(-1 0 0 1 120 48)" fill="#CECECE"/>
<rect width="52" height="112" transform="matrix(-1 0 0 1 60 8)" fill="#9E9E9E"/>
</g>
</svg>
